<?xml version="1.0" encoding="UTF-8" standalone="no"?>
<!-- Created with Inkscape (http://www.inkscape.org/) -->

<svg
   width="210mm"
   height="297mm"
   viewBox="0 0 210 297"
   version="1.1"
   id="svg5"
   xmlns="http://www.w3.org/2000/svg"
   xmlns:svg="http://www.w3.org/2000/svg">
  <defs
     id="defs2" />
  <g
     id="layer1">
    <path
       fill="#000000"
       d="m 20.658668,6.6295974 c 0,0 -2.518789,3.1302106 -3.732628,4.1601966 -0.719138,0.554832 -0.04132,3.834635 -0.481611,4.305172 -0.519128,0.482707 -2.683262,0.281582 -3.092245,0.02693 -0.607035,-0.40831 -0.257893,-3.665939 -0.257893,-3.665939 l -4.5036068,-0.04339 c 0,0 0.2145686,3.113878 -0.4050855,3.675853 C 7.6805091,15.546417 5.9169406,15.469951 5.148326,14.968015 4.1865656,14.339894 4.8412696,10.77318 4.8412696,10.77318 c 0,0 -0.8050636,-0.416463 -2.7577329,0.09956 0.8641313,-2.2029758 2.0597579,-2.7169469 2.0597579,-2.7169469 0,0 1.0791273,-7.1245857 5.9786584,-7.1495749 4.942819,-0.02521 6.462058,4.6549225 6.462058,4.6549225 0,0 0.651462,-2.5627206 3.146483,-3.9996727 1.561942,-0.74646684 4.369364,0.5073923 4.401029,3.5072237 0.02817,1.5792818 -3.472855,1.4609107 -3.472855,1.4609107 z"
       id="path101"
       style="stroke-width:0.264583" />
  </g>
</svg>
